<?xml version="1.0" encoding="UTF-8" standalone="no"?>
<!-- Created with Inkscape (http://www.inkscape.org/) -->

<svg
   width="210mm"
   height="297mm"
   viewBox="0 0 210 297"
   version="1.1"
   id="svg1"
   xml:space="preserve"
   sodipodi:docname="stfu-logo.svg"
   inkscape:version="1.4.4 (dcaf3e7, 2026-05-05)"
   xmlns:inkscape="http://www.inkscape.org/namespaces/inkscape"
   xmlns:sodipodi="http://sodipodi.sourceforge.net/DTD/sodipodi-0.dtd"
   xmlns="http://www.w3.org/2000/svg"
   xmlns:svg="http://www.w3.org/2000/svg"><sodipodi:namedview
     id="namedview1"
     pagecolor="#ffffff"
     bordercolor="#000000"
     borderopacity="0.25"
     inkscape:showpageshadow="2"
     inkscape:pageopacity="0.0"
     inkscape:pagecheckerboard="0"
     inkscape:deskcolor="#d1d1d1"
     inkscape:document-units="mm"
     inkscape:zoom="0.61984467"
     inkscape:cx="371.86736"
     inkscape:cy="375.09397"
     inkscape:window-width="1512"
     inkscape:window-height="916"
     inkscape:window-x="0"
     inkscape:window-y="38"
     inkscape:window-maximized="0"
     inkscape:current-layer="layer1" /><defs
     id="defs1" /><g
     inkscape:label="Layer 1"
     inkscape:groupmode="layer"
     id="layer1"><path
       style="fill:#000000"
       d="M 71.066322,134.14528 C 59.185633,133.58811 50.128379,130.0334 42.279093,122.84714 38.170495,119.08559 35.1184,115.26953 32.220497,110.27078 c -0.375272,-0.64733 -1.147854,-1.98027 -1.71685,-2.9621 -0.568995,-0.98183 -1.020729,-1.79895 -1.003853,-1.81582 0.01688,-0.0169 0.466591,0.24116 0.999367,0.57342 1.66714,1.03968 4.99519,3.02445 5.814651,3.46771 1.534979,0.8303 4.53158,2.0982 4.958969,2.0982 0.0825,0 -0.265138,-0.25961 -0.772522,-0.5769 -5.190334,-3.24581 -8.874786,-7.18976 -11.158916,-11.944839 -0.59615,-1.24106 -4.125422,-9.45858 -4.07978,-9.49931 0.01205,-0.0107 0.707262,0.6428 1.544922,1.45233 3.991448,3.85742 5.02463,4.76204 6.786458,5.94198 2.618912,1.75396 6.241406,2.9864 8.857811,3.013579 1.180178,0.0123 1.726429,-0.112789 2.092712,-0.479069 0.229215,-0.22922 0.262327,-0.33138 0.262327,-0.80936 0,-0.44616 -0.04773,-0.6181 -0.258818,-0.93241 -0.464757,-0.69201 -0.948697,-0.91844 -4.725606,-2.21115 l -1.061497,-0.36331 0.415368,-0.1077 c 0.228453,-0.0592 0.477674,-0.12934 0.553825,-0.15578 0.07615,-0.0264 0.969194,-0.27616 1.984539,-0.55494 2.917085,-0.80093 4.075967,-0.77763 5.942526,0.11948 0.773997,0.372 0.986921,0.53518 2.008136,1.53896 0.628287,0.61756 1.329703,1.21858 1.558703,1.33561 0.82722,0.42272 2.007832,0.45488 2.688236,0.0732 0.479405,-0.26892 0.593006,-0.60704 0.352879,-1.05033 -0.214581,-0.39612 -0.701779,-0.78573 -2.241612,-1.7926 -1.446063,-0.94555 -2.811367,-2.17966 -3.766454,-3.40452 -0.780367,-1.00079 -4.166712,-6.04742 -3.975054,-5.92397 0.0602,0.0388 0.898661,0.59156 1.863239,1.22841 2.626052,1.73381 2.858709,1.87539 4.0847,2.48559 2.073981,1.03227 5.922392,2.44253 11.099332,4.06739 2.684695,0.84263 4.212332,1.52728 5.907465,2.64757 0.533056,0.35229 1.208956,0.86028 1.501999,1.12887 l 0.532805,0.48834 2.790144,-0.10137 c 4.196433,-0.15247 7.486654,-0.4414 11.743646,-1.03127 4.253321,-0.58937 10.546331,-1.75557 15.922461,-2.95071 0.888435,-0.19751 2.383765,-0.52892 3.322955,-0.73648 1.98043,-0.43767 6.59746,-1.50481 8.99966,-2.08011 0.91381,-0.21885 2.69989,-0.63389 3.96908,-0.92231 1.26918,-0.28843 2.82681,-0.64384 3.4614,-0.78981 6.39166,-1.47024 14.66604,-2.81499 20.67613,-3.3603 7.87729,-0.71472 16.61985,-0.73043 23.62986,-0.0425 6.20193,0.60865 11.8492,1.52509 18.09161,2.93591 2.33838,0.52849 2.86143,0.6687 2.86143,0.76706 0,0.0482 -0.16327,0.65582 -0.36281,1.35026 -0.19955,0.69444 -0.57648,2.01028 -0.83763,2.92409 -0.62192,2.17618 -2.04963,7.099829 -2.44905,8.445829 -0.32892,1.10844 -1.58004,5.42825 -2.57977,8.90735 -0.32094,1.11688 -0.75032,2.59144 -0.95418,3.2768 -0.53944,1.8136 -1.64508,5.6137 -1.76378,6.06218 l -0.10203,0.38547 -0.99055,-0.26941 c -2.81217,-0.76485 -8.21295,-1.76048 -11.46707,-2.11394 -2.94174,-0.31954 -3.92703,-0.3799 -7.10741,-0.4354 -5.11457,-0.0892 -10.5023,0.29272 -15.23019,1.07974 -5.53464,0.92133 -9.98186,1.92971 -15.5994,3.53708 -3.64558,1.04313 -6.40532,1.92307 -12.78412,4.07621 -9.01085,3.04158 -12.516205,4.08989 -17.881945,5.3478 -6.29079,1.47478 -12.202186,2.29019 -18.439743,2.54357 -2.479614,0.10072 -2.819537,0.10021 -5.12288,-0.008 z m 7.178816,-1.23569 c 6.032386,-0.3566 13.037327,-1.52068 19.497087,-3.24004 4.125895,-1.09817 6.331165,-1.78813 15.322485,-4.79399 9.23336,-3.08677 13.82105,-4.45818 18.83005,-5.62891 8.53266,-1.99432 15.33175,-2.84562 22.75297,-2.84887 6.46698,-0.003 11.9751,0.64755 18.68544,2.20632 0.80066,0.18598 1.4897,0.30294 1.5312,0.25991 0.0415,-0.043 0.13779,-0.30671 0.21399,-0.58593 0.38284,-1.40284 0.78472,-2.79624 1.90345,-6.59974 1.2122,-4.12127 2.16805,-7.41383 2.69305,-9.27657 0.15024,-0.53305 0.48099,-1.67532 0.73499,-2.538359 0.25401,-0.86305 0.58265,-1.98454 0.73032,-2.49221 0.14766,-0.50768 0.70985,-2.43209 1.24929,-4.27648 0.53945,-1.84439 0.96511,-3.36913 0.94592,-3.38832 -0.0192,-0.0192 -0.8639,-0.22112 -1.87714,-0.44873 -5.22895,-1.1746 -10.86096,-2.13157 -15.50325,-2.63426 -11.61314,-1.25751 -23.80405,-0.86744 -35.98301,1.15134 -4.20682,0.69732 -9.62874,1.79973 -14.2766,2.90276 -5.24373,1.24445 -12.70018,2.96473 -14.86097,3.42858 -5.496335,1.17988 -6.563685,1.39715 -9.461175,1.92599 -8.341716,1.52249 -13.863416,2.16067 -19.845392,2.29364 l -2.769125,0.0615 -0.507673,-0.4803 c -1.093288,-1.03433 -2.622869,-1.99787 -4.374043,-2.75536 -0.614929,-0.266 -2.301854,-0.86057 -3.748721,-1.32126 -6.355299,-2.0236 -10.033844,-3.45272 -11.722626,-4.55424 l -0.323065,-0.21073 0.176948,0.27614 c 1.20875,1.88628 2.940584,3.54633 5.086514,4.87566 1.588764,0.98418 2.120104,1.6255 2.114981,2.55275 -0.0072,1.29606 -1.007921,2.03198 -2.763236,2.03198 -0.837454,0 -1.546788,-0.17376 -2.169147,-0.53135 -0.228453,-0.13127 -0.934579,-0.74038 -1.56917,-1.3536 -1.251274,-1.20912 -1.709846,-1.50747 -2.76757,-1.80058 -0.871461,-0.24149 -1.795119,-0.24509 -2.776055,-0.0108 -0.83744,0.20002 -0.933069,0.24787 -0.67704,0.33878 1.324261,0.47019 1.921778,0.81517 2.472139,1.42731 0.520888,0.57935 0.738964,1.23364 0.686386,2.05936 -0.04616,0.72493 -0.303674,1.220009 -0.832116,1.599759 -0.663427,0.47676 -1.371123,0.61174 -2.890099,0.55125 -1.84,-0.0733 -3.474913,-0.44182 -5.492097,-1.237999 -2.760418,-1.08955 -4.609894,-2.31212 -7.562746,-4.99925 l -0.747598,-0.68032 0.195961,0.44956 c 0.107779,0.24726 0.443947,1.03108 0.747041,1.74182 1.804357,4.231149 3.309177,6.532419 6.06728,9.278499 1.593317,1.58638 2.859691,2.61751 4.80762,3.91458 1.906667,1.26958 3.104826,1.94838 5.261336,2.98072 0.989962,0.4739 1.966078,0.94452 2.169147,1.04582 l 0.369217,0.18418 -1.33841,-0.0425 c -2.500857,-0.0793 -5.37881,-0.77108 -8.337204,-2.00397 -1.406389,-0.58611 -2.496149,-1.14601 -4.262312,-2.18992 -0.761509,-0.4501 -1.395944,-0.80948 -1.409856,-0.79862 -0.05022,0.0392 1.76673,2.98572 2.703597,4.38437 3.378655,5.04401 7.91307,9.62722 12.690337,12.82689 5.783445,3.87359 11.948455,6.03159 19.522326,6.8336 2.761072,0.29238 7.138928,0.34975 10.686374,0.14005 z m -10.365004,-1.06618 c -0.792054,-0.18816 -1.704128,-0.70578 -2.295016,-1.30248 -0.357246,-0.36075 -1.026238,-1.31441 -1.026238,-1.46291 0,-0.0561 -0.134995,-0.15576 -0.299989,-0.22137 -0.164993,-0.0656 -2.065305,-0.81992 -4.222914,-1.67625 -2.906057,-1.15336 -3.992882,-1.62599 -4.192804,-1.82332 l -0.269878,-0.26637 -1.668509,0.4869 c -1.376227,0.40161 -1.78978,0.48616 -2.36079,0.48269 -1.225233,-0.007 -2.226733,-0.55549 -3.040642,-1.66389 -0.737261,-1.00403 -1.10689,-2.12944 -1.110788,-3.38203 -0.0053,-1.69034 0.777478,-3.16877 2.002206,-3.78175 0.279475,-0.13987 0.966144,-0.31259 1.870388,-0.47044 0.785836,-0.13718 1.438936,-0.25957 1.451334,-0.27197 0.0124,-0.0124 -0.666269,-0.24061 -1.50815,-0.50715 -0.841881,-0.26654 -1.511879,-0.50343 -1.488886,-0.52642 0.02299,-0.023 0.619452,-0.16315 1.325464,-0.31146 2.289664,-0.48098 2.278725,-0.47802 2.169451,-0.58729 -0.159372,-0.15937 -0.118326,-0.57401 0.07406,-0.74811 0.190272,-0.17219 0.547887,-0.24312 3.747661,-0.74328 1.167647,-0.18251 2.529924,-0.40432 3.027281,-0.4929 l 0.904286,-0.16106 -0.519699,-0.82863 c -0.859029,-1.36966 -1.714091,-2.43298 -2.940706,-3.65693 -1.280439,-1.27765 -1.374216,-1.46708 -0.909607,-1.83733 0.23439,-0.18679 0.324551,-0.19844 1.176878,-0.15202 0.715485,0.039 0.963331,0.0207 1.102216,-0.0813 0.126356,-0.0928 0.446074,-0.1316 1.084574,-0.1316 h 0.905399 v -0.26261 c 0,-0.14512 0.08235,-0.33713 0.184074,-0.42919 0.173929,-0.1574 0.445153,-0.16387 4.920799,-0.1174 5.563395,0.0578 4.907391,-0.084 6.64083,1.43511 1.531819,1.34241 3.211256,2.68333 4.545978,3.62965 0.609208,0.43194 1.80027,1.2757 2.646806,1.87503 1.10573,0.78284 1.571583,1.16799 1.654309,1.36771 0.114659,0.27681 0.117568,0.27774 0.676144,0.21768 0.308544,-0.0332 0.999838,-0.0854 1.536208,-0.11594 l 0.975218,-0.0556 1.793903,0.60801 c 3.8689,1.31129 5.32048,1.67643 9.59373,2.41324 1.52258,0.26253 1.78417,0.39228 1.82813,0.90674 0.0459,0.53694 -0.0346,0.56731 -3.25684,1.22955 -2.03659,0.41855 -4.51657,0.83449 -5.44807,0.91373 -0.41812,0.0356 -1.05875,0.0186 -1.47686,-0.0391 -0.67539,-0.0932 -0.82513,-0.0817 -1.75378,0.13374 -0.55844,0.12958 -1.243802,0.28357 -1.523022,0.34222 -0.27922,0.0586 -0.525144,0.1193 -0.546497,0.1348 -0.02135,0.0155 0.04665,0.12147 0.151115,0.2355 0.534391,0.58329 0.918125,2.00378 0.811518,3.00403 -0.118399,1.1109 -0.589635,2.0278 -1.28807,2.50625 -0.205795,0.14097 -0.66493,0.38254 -1.020301,0.53681 -0.355371,0.15427 -2.473751,1.07886 -4.707512,2.05465 -2.23376,0.97579 -4.599973,2.0015 -5.25825,2.27934 -0.658278,0.27785 -1.471843,0.64365 -1.807923,0.8129 -1.051314,0.52943 -2.023463,0.70011 -2.858217,0.50182 z m -3.784035,-3.85031 c -0.0061,-0.33285 -0.149452,-0.49319 -0.5877,-0.65716 -0.638118,-0.23875 -2.768238,-1.13183 -2.826104,-1.18487 -0.08071,-0.074 0.47142,0.0824 1.859467,0.52658 l 1.351984,0.43268 0.04051,-1.02395 c 0.02228,-0.56317 0.07002,-1.09005 0.106074,-1.17086 0.0755,-0.16919 0.451964,-0.0126 -4.167047,-1.73299 -1.790183,-0.66675 -3.295894,-1.21228 -3.346025,-1.21228 -0.430078,0 0.655914,0.5592 3.064386,1.57793 0.644047,0.27241 1.160403,0.50589 1.147458,0.51883 -0.01295,0.0129 -0.954223,-0.28738 -2.091729,-0.66739 -1.137506,-0.38002 -2.079615,-0.69094 -2.093576,-0.69094 -0.01396,0 -0.02538,0.0611 -0.02538,0.13566 0,0.15209 0.416476,0.35349 3.344322,1.61723 1.99972,0.86313 2.566948,1.15776 1.264747,0.65694 -0.669191,-0.25737 -4.49514,-1.57909 -4.570956,-1.57909 -0.02096,0 -0.03811,0.0528 -0.03811,0.11736 0,0.0655 0.956343,0.523 2.164447,1.03543 1.190446,0.50494 2.153111,0.92941 2.139255,0.94326 -0.01386,0.0139 -0.333651,-0.078 -0.710657,-0.20411 -3.321022,-1.11097 -4.707563,-1.36429 -2.528524,-0.46195 0.585486,0.24245 1.050348,0.45499 1.033026,0.47231 -0.01732,0.0173 -0.494621,-0.12151 -1.060664,-0.30851 -0.936166,-0.30929 -1.30728,-0.3504 -1.07609,-0.11921 0.04782,0.0478 1.561144,0.67272 3.362948,1.38866 1.801803,0.71595 3.462921,1.3789 3.691374,1.47322 0.476499,0.19674 0.554313,0.21325 0.552565,0.11722 z m 0.283476,-3.90976 c 0.06523,-0.12188 0.07159,-0.22704 0.01703,-0.28159 -0.04789,-0.0479 -0.789015,-0.35739 -1.64695,-0.68778 -3.731961,-1.43717 -4.65207,-1.80759 -4.65207,-1.87288 0,-0.0382 0.851505,-0.27232 1.892235,-0.52031 1.040729,-0.24798 1.892235,-0.47665 1.892235,-0.50815 0,-0.0315 -0.09416,-0.10766 -0.209253,-0.16926 -0.176642,-0.0945 -0.596695,-0.025 -2.695378,0.44593 -1.367369,0.30685 -2.498543,0.55791 -2.51372,0.55791 -0.01518,0 -0.02759,0.0588 -0.02759,0.1307 0,0.082 0.420937,0.29193 1.130726,0.56381 2.025205,0.77576 5.364677,2.08506 5.884389,2.30709 0.637346,0.27229 0.797901,0.27826 0.928345,0.0345 z m 2.856125,-2.10346 c 1.893297,-0.4643 3.969078,-1.05036 3.969078,-1.1206 0,-0.0377 -0.07668,-0.16323 -0.1704,-0.27897 l -0.170401,-0.21043 -0.960325,0.24984 c -3.904094,1.01572 -3.729847,0.98564 -4.19233,0.72361 -0.15305,-0.0867 -0.755335,-0.51308 -1.338411,-0.94748 -1.718353,-1.28019 -4.19978,-2.91785 -7.327973,-4.8362 -0.740991,-0.45441 -1.347256,-0.8566 -1.347256,-0.89375 0,-0.0371 0.07269,-0.0892 0.161532,-0.11578 0.146441,-0.0437 3.538556,-0.65856 5.0075,-0.90761 0.725393,-0.12299 0.823943,-0.19367 0.605912,-0.4346 -0.110976,-0.12262 -0.244886,-0.16896 -0.408573,-0.14137 -0.13392,0.0226 -1.736063,0.27399 -3.560318,0.5587 -1.824254,0.28471 -3.396277,0.54704 -3.493383,0.58296 -0.159197,0.0589 -0.146185,0.0885 0.132333,0.30065 0.16989,0.12944 0.760218,0.49522 1.311841,0.81286 2.675829,1.54082 7.531415,4.73722 9.083829,5.97982 0.472463,0.37817 1.401157,0.94703 1.538113,0.94215 0.05375,-0.002 0.575408,-0.12063 1.159232,-0.2638 z m 9.151083,-1.21448 c 1.642802,-0.40883 3.049217,-0.76673 3.125368,-0.79533 0.123072,-0.0462 0.123072,-0.0573 0,-0.0999 -0.546784,-0.18894 -2.849818,-1.11973 -3.413582,-1.37962 -0.689911,-0.31804 -0.6911,-0.31823 -1.175298,-0.18048 l -0.484689,0.13788 -0.09639,-0.35797 c -0.121526,-0.45132 -0.203855,-0.50011 -0.545601,-0.32339 -0.583464,0.30172 -1.507214,0.0787 -1.936957,-0.46762 -0.249899,-0.3177 -0.245939,-0.6351 0.01016,-0.81448 l 0.203495,-0.14253 -0.185051,-0.24785 c -0.101778,-0.13632 -0.245271,-0.2782 -0.318875,-0.31529 -0.0736,-0.0371 -0.403813,-0.19629 -0.733801,-0.35379 -0.515376,-0.24598 -0.9579,-0.63754 -3.13834,-2.77691 l -2.538364,-2.49056 -0.761509,-0.001 c -0.418831,-6.3e-4 -0.76151,0.0128 -0.76151,0.0298 0,0.0486 1.266315,1.69991 2.03679,2.65608 0.38411,0.47669 1.544181,1.92589 2.577938,3.22046 1.033757,1.29456 2.151053,2.68605 2.482881,3.09218 0.331828,0.40614 0.846394,1.03574 1.143481,1.3991 0.535258,0.65468 0.944077,0.9485 1.325362,0.95256 0.10867,0.001 1.541692,-0.3324 3.184493,-0.74123 z m -9.736193,-7.97395 c -0.03177,-0.0828 -0.113921,-0.11782 -0.199419,-0.085 -0.312082,0.11976 -0.698357,-0.57632 -0.416489,-0.75052 0.108598,-0.0671 0.871767,0.25535 0.966292,0.40829 0.03631,0.0587 0.02443,0.15691 -0.02639,0.21815 -0.05082,0.0612 -0.101125,0.14249 -0.111788,0.18056 -0.04113,0.14688 -0.160626,0.16295 -0.212205,0.0285 z m -1.307125,-1.25157 c -0.03138,-0.0508 0.03278,-0.0923 0.142571,-0.0923 0.188239,0 0.183289,-0.0186 -0.08686,-0.32628 -0.444747,-0.50654 -0.337335,-0.59904 0.140611,-0.1211 0.237832,0.23784 0.399029,0.47249 0.363769,0.52954 -0.07885,0.12757 -0.482994,0.13489 -0.560094,0.0101 z m 18.553133,7.71287 c 0.863043,-0.19063 1.603367,-0.37881 1.645157,-0.41817 0.0418,-0.0394 -0.0413,-0.0997 -0.18461,-0.13409 -0.14333,-0.0344 -0.945952,-0.28402 -1.783612,-0.55474 -1.432246,-0.46289 -2.725999,-0.74476 -2.400711,-0.52304 0.07571,0.0516 0.345698,0.14404 0.599977,0.20541 l 0.462324,0.11159 -0.502331,0.11381 c -0.501591,0.11365 -0.50272,0.1134 -0.765823,-0.16825 l -0.263492,-0.28207 -0.146859,0.20967 c -0.137551,0.19638 -0.197237,0.20716 -0.941803,0.17014 -0.785282,-0.0391 -1.210314,-0.18509 -1.210314,-0.41585 0,-0.13781 0.661713,-0.32807 0.867005,-0.24929 0.08159,0.0313 0.148341,0.0167 0.148341,-0.0324 0,-0.0491 -0.212082,-0.11444 -0.471294,-0.14514 -0.784939,-0.093 -0.927344,-0.42339 -0.241993,-0.56151 0.364462,-0.0735 0.300992,-0.1216 -0.687287,-0.52144 l -0.708293,-0.28656 -1.958606,0.32836 c -1.899114,0.31839 -2.111695,0.3688 -2.00503,0.47546 0.17939,0.17939 5.714979,2.51955 6.90324,2.91833 0.732905,0.24597 1.74751,0.17912 3.646014,-0.24022 z m -15.968143,-0.012 c 0.912269,-0.18127 1.67452,-0.34544 1.693891,-0.36481 0.01937,-0.0194 -0.333037,-0.48296 -0.783128,-1.0302 l -0.818348,-0.99498 -0.09557,0.45049 -0.09557,0.45049 -0.597003,-0.54449 c -0.328351,-0.29947 -0.62204,-0.57858 -0.652641,-0.62025 -0.0306,-0.0417 -0.02203,-0.24936 0.01906,-0.46152 0.183186,-0.94605 0.239924,-0.83874 -1.763348,-3.33488 -1.664334,-2.07382 -1.846083,-2.33443 -1.846083,-2.64716 0,-0.45945 0.249447,-0.63425 0.90512,-0.63425 0.272155,0 0.480981,-0.0372 0.464058,-0.0828 -0.01692,-0.0455 -0.703619,-0.7724 -1.525994,-1.61532 l -1.495226,-1.53257 h -0.97391 c -0.543028,0 -0.973909,0.0382 -0.973909,0.0864 0,0.0475 0.387699,0.66017 0.861555,1.36149 1.879038,2.78104 3.210521,5.60963 4.619323,9.81326 0.412258,1.23011 0.564774,1.57184 0.793026,1.77686 0.155431,0.13961 0.355374,0.25383 0.444317,0.25383 0.08894,0 0.908117,-0.14831 1.820386,-0.32959 z m -6.023319,-10.34768 c -0.381355,-0.22208 -0.47057,-0.4098 -0.312904,-0.6584 0.06175,-0.0974 0.141833,-0.0896 0.413955,0.0402 0.301242,0.14365 0.337393,0.19862 0.337393,0.51301 0,0.19367 -0.01038,0.34797 -0.02308,0.34289 -0.01269,-0.005 -0.199607,-0.11203 -0.415368,-0.23767 z m -0.991875,-1.16073 c -0.236705,-0.6834 -0.288919,-0.89997 -0.21698,-0.89997 0.117667,0 1.286758,0.94513 1.234157,0.99774 -0.02344,0.0234 -0.146294,-0.0253 -0.273011,-0.10835 -0.287743,-0.18853 -0.513801,-0.19403 -0.513801,-0.0125 0,0.16737 -0.174337,0.18484 -0.230365,0.0231 z m 0.276005,-0.43901 c -0.183651,-0.20294 -0.284345,-0.18125 -0.198396,0.0427 0.03006,0.0783 0.124705,0.14244 0.210318,0.14244 0.142047,0 0.141005,-0.0162 -0.01192,-0.18517 z m -1.253285,11.59335 c -0.195583,-0.19089 -2.953547,-1.93882 -4.739863,-3.00401 l -1.28615,-0.76694 -0.952226,0.16322 c -0.523724,0.0898 -0.951719,0.18863 -0.9511,0.21969 6.19e-4,0.0311 0.447141,0.21393 0.99227,0.40637 1.610817,0.56866 3.446319,1.34918 5.180586,2.20297 1.436355,0.70712 1.888555,0.9076 1.756483,0.7787 z m 31.806474,-0.60415 c 2.59596,-0.44052 5.50564,-1.06731 5.30748,-1.14332 -0.0761,-0.0292 -0.98996,-0.20153 -2.03069,-0.38293 -3.16216,-0.55116 -5.56352,-1.17705 -8.39967,-2.18927 l -1.61533,-0.5765 -1.292256,0.005 c -1.036268,0.004 -1.630529,0.0645 -2.999884,0.30692 -0.939195,0.1663 -2.185301,0.3744 -2.769124,0.46244 -0.931797,0.14053 -1.033302,0.17288 -0.830738,0.2647 1.78932,0.81112 4.546235,1.866 6.507442,2.48995 4.42604,1.40812 4.36013,1.40193 8.12277,0.76344 z m 1.75377,-1.02295 -0.46152,-0.0654 0.57054,0.0152 c 0.3138,0.008 0.55019,-0.0178 0.5253,-0.058 -0.0249,-0.0403 -0.12586,-0.0732 -0.22439,-0.0732 -0.0985,0 -0.17917,-0.0405 -0.17917,-0.09 0,-0.10646 0.38064,0.0229 0.67588,0.22969 0.18875,0.13221 0.18418,0.13669 -0.12459,0.1222 -0.17629,-0.008 -0.52821,-0.0445 -0.78205,-0.0804 z m -5.87798,-0.32119 c -0.0676,-0.0676 -2.51617,-0.31961 -3.117055,-0.32079 -0.391267,-7.7e-4 -0.478443,-0.0256 -0.392293,-0.11176 0.155793,-0.15579 0.137647,-0.4559 -0.04318,-0.71406 -0.152924,-0.21833 -0.152159,-0.21943 0.115853,-0.16583 0.148386,0.0297 0.943195,0.10714 1.766245,0.17213 1.48364,0.11715 1.496,0.11995 1.44403,0.32704 -0.0326,0.12993 0.0237,0.33205 0.149,0.53479 0.17865,0.28906 0.21355,0.41463 0.0774,0.27848 z m 4.5165,-0.0187 c -0.38271,-0.058 -0.30454,-0.2108 0.10783,-0.2108 0.40884,0 0.65368,0.0728 0.65368,0.19449 0,0.0825 -0.28453,0.0886 -0.76151,0.0163 z m -16.622174,-1.438 c 0.867996,-0.12862 1.019116,-0.21168 0.546445,-0.30035 -0.359242,-0.0674 -1.087223,-0.005 -1.900505,0.16374 -0.474795,0.0983 -0.48974,0.10931 -0.230761,0.16973 0.415954,0.097 0.754151,0.09 1.584821,-0.0331 z m -12.48089,-1.09368 c -1.219212,-2.96713 -2.297571,-4.94319 -3.841435,-7.03933 l -0.584249,-0.79324 h -0.773835 -0.773834 l 1.238718,1.27345 c 0.958423,0.98529 1.448373,1.58577 2.165252,2.65374 0.801842,1.19454 2.048112,3.33155 2.7077,4.64296 0.375531,0.74664 0.294914,0.31676 -0.138317,-0.73758 z m 11.830896,0.19371 c 2.767948,-0.41667 5.567834,-0.8874 5.793662,-0.97406 0.290095,-0.11132 0.135525,-0.28763 -0.8441,-0.96281 -2.986271,-2.05823 -5.011381,-3.58985 -6.891534,-5.21219 -1.748042,-1.50834 -1.821826,-1.5691 -2.085044,-1.71687 -0.185713,-0.10426 -1.095668,-0.13865 -4.661359,-0.17618 -2.436829,-0.0256 -4.472135,-0.0117 -4.522903,0.031 -0.112346,0.0945 8.57875,8.7273 9.179258,9.11773 0.559507,0.36377 0.981554,0.35262 4.03202,-0.10659 z m 3.306887,-1.65056 c -0.403786,-0.19936 -0.658736,-0.36551 -0.566556,-0.36922 0.09218,-0.004 0.249513,0.0371 0.349627,0.0907 0.232857,0.12462 0.57457,0.0224 0.507691,-0.15191 -0.119473,-0.31134 0.201139,-0.0869 0.475733,0.33306 0.382799,0.58542 0.254879,0.60167 -0.766495,0.0974 z m 0.604254,0.0493 c 0,-0.13918 -0.268027,-0.28029 -0.359207,-0.18911 -0.03073,0.0307 0.02469,0.11478 0.123158,0.18678 0.221384,0.16188 0.236049,0.16203 0.236049,0.002 z m -1.970233,-0.87096 c -0.181929,-0.20102 -0.202784,-0.56963 -0.03223,-0.56963 0.272943,0 1.264029,0.39486 1.264029,0.5036 0,0.0697 -0.173946,0.14128 -0.428252,0.17614 -0.602827,0.0826 -0.632855,0.0785 -0.803548,-0.11011 z m -5.921771,-1.2969 c -1.821347,-0.68685 -2.204198,-0.86124 -2.515288,-1.14569 -0.254888,-0.23306 -0.269157,-0.57985 -0.02914,-0.7083 0.28008,-0.14989 0.975441,-0.11226 1.481945,0.0802 0.362381,0.1377 0.462511,0.14882 0.462511,0.0514 0,-0.19955 0.382657,-0.41174 0.742528,-0.41174 0.50014,0 1.132871,0.2496 1.471152,0.58033 0.300807,0.29409 0.301644,0.29745 0.244035,0.97897 -0.03179,0.37612 -0.05781,0.8022 -0.05781,0.94684 0,0.14464 -0.03115,0.26109 -0.06923,0.25878 -0.03807,-0.002 -0.816891,-0.28616 -1.730702,-0.63077 z m -6.225811,-3.03948 c -0.276624,-0.13666 -0.517253,-0.29538 -0.53473,-0.35272 -0.01954,-0.0641 0.169954,-0.12945 0.492207,-0.16971 0.628489,-0.0785 0.891569,0.0939 0.805228,0.5278 -0.06163,0.30972 -0.1258,0.30926 -0.762705,-0.005 z m -1.0578,-0.82464 c -0.06111,-0.0611 -0.423785,-0.84197 -0.423785,-0.91243 0,-0.11187 0.287577,0.0167 0.887595,0.39678 0.72678,0.4604 0.824347,0.59254 0.264911,0.3588 -0.425818,-0.17792 -0.506377,-0.17965 -0.506377,-0.0109 0,0.15772 -0.13244,0.25761 -0.222344,0.16771 z m 0.213397,-0.54226 c -0.05828,-0.0702 -0.164643,-0.12767 -0.236364,-0.12767 -0.100974,0 -0.10852,0.0409 -0.03344,0.18117 0.05793,0.10824 0.153073,0.15964 0.236363,0.12767 0.107421,-0.0412 0.115093,-0.0828 0.03344,-0.18117 z m 22.715765,21.49689 c 0,-0.0449 0.44004,-1.09697 0.97787,-2.33801 0.53783,-1.24104 1.12675,-2.63027 1.30873,-3.08718 0.18197,-0.4569 0.37008,-0.85711 0.41803,-0.88934 0.0479,-0.0322 0.46628,-0.1065 0.92965,-0.16504 1.95236,-0.24664 5.71403,-1.03391 7.79311,-1.631 2.561775,-0.73572 4.245155,-1.78186 4.887705,-3.03747 0.3152,-0.61594 0.39351,-1.62761 0.16082,-2.07759 -0.21344,-0.41275 -0.45072,-0.60073 -1.06112,-0.84066 -0.46198,-0.1816 -0.75686,-0.20607 -3.276795,-0.27192 -2.77557,-0.0725 -3.48785,-0.15309 -4.49497,-0.50843 -0.99486,-0.351 -1.71815,-1.05063 -2.12386,-2.05437 -0.19089,-0.47227 -0.2108,-0.66425 -0.20267,-1.95443 0.008,-1.28598 0.0379,-1.54064 0.29417,-2.51736 0.43226,-1.64718 1.03848,-2.81352 2.16604,-4.16734 1.69365,-2.0335 4.58364,-3.735049 7.996335,-4.708029 1.12353,-0.32032 1.67479,-0.43391 4.94924,-1.01982 1.73482,-0.31041 4.5821,-0.91151 4.90551,-1.03561 0.12265,-0.0471 0.135,-0.006 0.0777,0.25789 -0.24616,1.13471 -1.51747,4.558659 -1.76633,4.757149 -0.23981,0.19128 -2.81696,0.86647 -4.87839,1.27811 -3.67066,0.73297 -4.81534,1.13624 -5.876465,2.07027 -1.08254,0.95289 -1.30087,2.5379 -0.43457,3.15476 0.54884,0.39081 1.088855,0.46177 4.141885,0.54431 3.19207,0.0863 3.79881,0.1768 4.93827,0.73655 0.7774,0.38189 1.16824,0.73579 1.49925,1.35756 0.81039,1.52219 0.73139,4.00773 -0.20797,6.54398 -1.6105,4.3483 -5.23246,7.31749 -11.080635,9.08362 -2.81152,0.84907 -8.1565,2.03755 -10.79447,2.40019 -0.40614,0.0558 -0.85266,0.12385 -0.99227,0.15115 -0.13961,0.0273 -0.25384,0.0129 -0.25384,-0.0319 z m 27.886445,-7.55655 c 0.0197,-0.0462 0.27198,-0.43941 0.56068,-0.87387 1.29556,-1.9497 1.52381,-2.55763 2.60995,-6.95141 3.38236,-13.682759 3.51941,-14.250179 3.45642,-14.310789 -0.0513,-0.0494 -2.5038,0.50729 -4.67551,1.06133 -0.97691,0.24922 -1.80211,0.45313 -1.83377,0.45313 -0.0317,0 -0.0304,-0.0935 0.003,-0.20768 0.0333,-0.11423 0.32509,-1.2181 0.6485,-2.45306 0.32342,-1.23496 0.608,-2.26534 0.6324,-2.28974 0.11189,-0.11189 6.224,-1.47489 9.48406,-2.11495 3.42421,-0.67229 9.25515,-1.61286 9.35843,-1.50958 0.0233,0.0233 -0.22525,1.05884 -0.55242,2.30111 -0.32718,1.24227 -0.59496,2.26717 -0.59507,2.27757 -1.1e-4,0.0104 -0.13519,0.0409 -0.30019,0.0677 -1.34038,0.21812 -3.82005,0.64586 -4.72481,0.81503 l -1.10188,0.20601 -0.62995,2.58452 c -0.34647,1.421479 -0.91804,3.789079 -1.27014,5.261329 -0.3521,1.47225 -1.03695,4.29428 -1.52189,6.27118 -0.52892,2.15617 -0.88171,3.78269 -0.88171,4.06506 0,0.64981 0.23074,1.48641 0.55517,2.01296 0.18576,0.30147 0.23616,0.45353 0.15857,0.47835 -0.0626,0.02 -0.8481,0.24658 -1.74563,0.5035 -1.35423,0.38764 -6.89804,2.14004 -7.49587,2.36945 -0.0958,0.0368 -0.15794,0.0291 -0.13824,-0.0172 z M 131.664,115.419 c 0,-0.047 0.12043,-0.26401 0.26762,-0.48231 0.46559,-0.69053 1.27396,-2.30815 1.52849,-3.05866 0.13493,-0.39784 0.6816,-2.43314 1.21483,-4.5229 0.53323,-2.08976 1.53244,-5.9387 2.22048,-8.553219 1.68804,-6.41451 1.75269,-6.75229 1.47126,-7.68741 l -0.12782,-0.42473 0.52011,-0.0558 c 0.28607,-0.0307 0.87318,-0.0961 1.3047,-0.1454 3.2262,-0.36837 9.57741,-0.66789 13.21353,-0.62314 l 2.36779,0.0291 -0.21269,0.69228 c -0.11698,0.38076 -0.38747,1.29886 -0.60109,2.04022 l -0.3884,1.34794 -3.15126,0.0529 c -3.71463,0.0624 -7.16121,0.29104 -7.31251,0.48507 -0.0549,0.0704 -0.25834,0.74235 -0.45201,1.49313 -0.19368,0.75078 -0.48995,1.86151 -0.65838,2.46828 -0.16843,0.60677 -0.28901,1.12044 -0.26797,1.14149 0.0211,0.021 0.96454,-0.0289 2.09666,-0.11104 2.19797,-0.15944 6.62125,-0.37079 6.67297,-0.31885 0.0387,0.0389 -1.09138,4.015459 -1.16092,4.084999 -0.0278,0.0278 -0.94084,0.093 -2.02901,0.1448 -2.18754,0.10424 -6.19166,0.43665 -6.53859,0.54282 -0.20545,0.0629 -0.28609,0.31278 -1.09265,3.38612 -0.79232,3.01907 -0.87155,3.39729 -0.87878,4.19512 -0.008,0.83538 0.056,1.14507 0.43787,2.1328 0.0468,0.12113 -0.0336,0.15895 -0.43944,0.20665 -0.91224,0.10721 -7.38399,1.38903 -7.78735,1.54239 -0.13127,0.0499 -0.21744,0.0488 -0.21744,-0.003 z m 31.1988,-2.40826 c -3.31306,-0.30891 -5.51891,-1.08933 -6.62244,-2.343 -0.78571,-0.89261 -1.18622,-1.97703 -1.28415,-3.47694 -0.10303,-1.57808 0.0284,-2.12785 1.86163,-7.788909 0.5261,-1.62456 1.25618,-3.88831 1.62241,-5.03058 l 0.66588,-2.07684 0.009,-1.18231 0.009,-1.18232 0.64613,0.0522 c 0.35537,0.0287 1.39379,0.0958 2.3076,0.14921 1.67826,0.098 3.27421,0.23766 3.32769,0.29113 0.016,0.016 -0.68971,2.29214 -1.5682,5.05813 -0.8785,2.76598 -1.79386,5.672879 -2.03415,6.459769 -0.24028,0.78689 -0.49287,1.60288 -0.56131,1.81329 -0.22075,0.67872 -0.34174,1.6077 -0.29804,2.28854 0.0492,0.76717 0.38814,1.50035 0.85982,1.86012 1.06027,0.80871 3.05752,0.99144 4.43446,0.4057 0.88802,-0.37776 1.81315,-1.49397 2.37047,-2.86009 0.53082,-1.30114 3.93063,-11.804179 4.03955,-12.479369 0.063,-0.39051 0.0954,-0.94075 0.072,-1.22274 -0.0234,-0.282 -0.0229,-0.51273 9.7e-4,-0.51273 0.19223,0 5.84731,1.01292 5.90138,1.05704 0.0122,0.01 -0.67955,2.1542 -1.53727,4.76495 -0.85772,2.61076 -1.92044,5.889099 -2.36161,7.285199 -0.84654,2.67893 -1.22057,3.57682 -1.96321,4.71282 -0.91507,1.39978 -2.24297,2.54607 -3.72384,3.21458 -1.50611,0.67991 -3.83991,0.96083 -6.17414,0.74318 z m -50.25961,21.10283 c -0.0508,-0.0194 -0.20653,-0.0605 -0.34614,-0.0913 -0.26893,-0.0593 -0.30947,-0.21275 -0.20034,-0.75839 l 0.0535,-0.26747 0.81597,0.002 c 0.98569,0.003 1.32004,-0.17102 1.36636,-0.70925 0.0242,-0.28079 -0.006,-0.33722 -0.23076,-0.42494 -0.14224,-0.0556 -0.63424,-0.0927 -1.09332,-0.0824 -0.92703,0.0208 -1.21974,-0.0917 -1.46307,-0.56222 -0.68179,-1.31843 0.38943,-2.78463 2.03638,-2.78724 0.81053,-10e-4 0.82844,0.012 0.77144,0.57221 l -0.0485,0.47694 -0.55597,-0.023 c -0.84791,-0.0351 -1.42857,0.27692 -1.42857,0.76768 0,0.38968 0.30864,0.51275 1.28972,0.51426 1.29053,0.002 1.66508,0.27664 1.73721,1.27384 0.065,0.89916 -0.41395,1.57359 -1.35288,1.90486 -0.4051,0.14293 -1.19027,0.25589 -1.35099,0.19437 z m 3.64602,-1.22198 c 0,-0.0346 -0.25081,-1.24586 -0.55734,-2.69177 -0.30654,-1.4459 -0.52461,-2.65805 -0.4846,-2.69367 0.0911,-0.0811 0.66248,-0.27456 0.81085,-0.27456 0.0678,0 0.17385,0.36022 0.27408,0.93079 l 0.1635,0.9308 0.26659,-0.32342 c 0.68553,-0.83167 1.80607,-0.75335 2.20573,0.15416 0.15888,0.36078 0.70001,2.90444 0.63012,2.96198 -0.0177,0.0146 -0.22763,0.0916 -0.46657,0.17131 -0.50959,0.16992 -0.43189,0.29661 -0.72351,-1.17961 -0.29647,-1.50076 -0.46092,-1.73202 -1.05509,-1.48376 -0.57842,0.24168 -0.63542,0.68595 -0.29361,2.28857 l 0.21102,0.98941 -0.41473,0.14131 c -0.45972,0.15664 -0.56644,0.17143 -0.56644,0.0785 z m 4.39234,-1.91994 c -0.17673,-0.17673 -0.3648,-0.47787 -0.41794,-0.66921 -0.077,-0.27721 -0.40877,-2.01623 -0.49476,-2.5933 -0.0165,-0.11086 0.56431,-0.38044 0.82704,-0.38386 0.0632,-8.2e-4 0.17052,0.36598 0.26281,0.89858 0.29275,1.68928 0.4135,1.96146 0.87022,1.96146 0.34176,0 0.62065,-0.22422 0.74408,-0.5982 0.0868,-0.26296 0.0692,-0.51424 -0.0974,-1.39541 -0.11175,-0.59109 -0.20813,-1.13707 -0.21416,-1.21329 -0.007,-0.0897 0.14708,-0.18543 0.43723,-0.27141 0.24651,-0.073 0.46015,-0.1199 0.47477,-0.10411 0.0194,0.021 0.5539,2.89213 0.72481,3.89345 0.0151,0.0884 -0.53808,0.31695 -0.79396,0.32808 -0.10778,0.005 -0.16187,-0.0621 -0.16255,-0.20067 -9.5e-4,-0.19129 -0.0198,-0.18386 -0.23889,0.0941 -0.31508,0.39981 -0.67566,0.57507 -1.18314,0.57507 -0.35293,0 -0.46617,-0.0493 -0.7382,-0.32132 z m 3.92099,-2.00919 c -0.29432,-1.76082 -0.2612,-1.66598 -0.56098,-1.60602 -0.23905,0.0478 -0.25485,0.0289 -0.30951,-0.36986 -0.0655,-0.47779 -0.0261,-0.58573 0.21376,-0.58573 0.14576,0 0.17389,-0.0955 0.20404,-0.69255 0.0329,-0.65056 0.0549,-0.71251 0.36418,-1.02176 0.33309,-0.33309 0.95859,-0.55764 1.27426,-0.45745 0.12619,0.0401 0.14574,0.12913 0.10476,0.47747 -0.0463,0.39375 -0.0725,0.43058 -0.32558,0.45727 -0.32998,0.0348 -0.50937,0.25273 -0.50937,0.6188 0,0.25908 0.0128,0.26715 0.32962,0.20771 0.18129,-0.034 0.38352,-0.0825 0.44939,-0.1078 0.13048,-0.0501 0.23303,0.22484 0.23507,0.63013 0.001,0.21426 -0.0519,0.26459 -0.36795,0.3497 -0.44823,0.12069 -0.44505,0.0795 -0.13807,1.79517 0.12671,0.70812 0.23037,1.29611 0.23037,1.30665 0,0.0248 -0.84618,0.31343 -0.91889,0.31343 -0.0304,0 -0.15419,-0.59182 -0.2751,-1.31516 z m 2.4555,-0.69653 c -0.21715,-1.71513 -0.21542,-1.7097 -0.52484,-1.64781 -0.232,0.0464 -0.25706,0.0228 -0.30895,-0.29107 -0.0854,-0.51646 -0.0765,-0.54779 0.17226,-0.61023 0.21254,-0.0534 0.23077,-0.0997 0.2309,-0.58691 2.7e-4,-0.98113 0.53591,-1.59049 1.39807,-1.59049 0.42736,0 0.44782,0.0116 0.44661,0.25384 -0.002,0.45493 -0.10004,0.67878 -0.27259,0.62402 -0.22969,-0.0729 -0.64919,0.29055 -0.64919,0.56245 0,0.2836 0.16832,0.35213 0.58336,0.23753 0.2906,-0.0802 0.32859,-0.0693 0.37635,0.10873 0.0292,0.10888 0.0537,0.32931 0.0544,0.48984 0.001,0.26889 -0.0278,0.29679 -0.36796,0.35426 -0.4466,0.0755 -0.44719,0.0807 -0.1865,1.66147 0.25418,1.54125 0.26244,1.48198 -0.22359,1.60437 -0.22555,0.0568 -0.44542,0.10326 -0.4886,0.10326 -0.0432,0 -0.15104,-0.57297 -0.23971,-1.27326 z m 2.48595,0.3333 c -0.40689,-2.61193 -0.71935,-5.17136 -0.63999,-5.24233 0.0424,-0.0379 0.25135,-0.11118 0.46441,-0.16288 0.37509,-0.091 0.38896,-0.0863 0.43673,0.14878 0.0901,0.44353 0.6989,4.91868 0.6989,5.1378 0,0.21815 -0.0596,0.25344 -0.61771,0.36558 -0.27802,0.0559 -0.29734,0.0419 -0.34234,-0.24695 z m 41.45305,-0.32663 c -0.14261,-0.0214 -0.27586,-0.0879 -0.2961,-0.14771 -0.0203,-0.0598 0.22461,-1.31329 0.54414,-2.78554 l 0.58095,-2.67682 0.26324,0.032 c 0.49167,0.0597 0.67947,0.17326 0.6258,0.37847 -0.0474,0.18124 -0.0377,0.18358 0.215,0.0518 0.67869,-0.35396 1.6142,-0.002 1.97487,0.74312 0.42363,0.8751 0.0687,2.48365 -0.66302,3.00467 -0.66823,0.47583 -1.45276,0.45502 -1.95975,-0.052 l -0.3065,-0.30649 -0.16744,0.91258 c -0.18213,0.99265 -0.13844,0.94708 -0.81119,0.84595 z m 2.44716,-2.15497 c 0.37351,-0.17372 0.57248,-0.54728 0.61063,-1.14639 0.0323,-0.50779 0.0131,-0.57961 -0.21722,-0.8099 -0.45594,-0.45594 -1.05013,-0.30899 -1.341,0.33165 -0.46259,1.01883 0.11627,2.01129 0.94759,1.62464 z m -41.61681,1.80491 c -0.56961,-0.34143 -0.81629,-0.90083 -0.81347,-1.84476 0.002,-0.77235 0.12961,-1.15033 0.53934,-1.60122 0.52825,-0.58132 1.59614,-0.75735 2.18538,-0.36024 0.35687,0.2405 0.70349,0.86773 0.78981,1.42918 0.0447,0.29107 0.0277,0.40076 -0.0668,0.42996 -0.0698,0.0216 -0.63576,0.1539 -1.25766,0.29408 -0.6219,0.14018 -1.13073,0.28598 -1.13073,0.324 0,0.61162 1.00569,0.76253 1.55765,0.23372 l 0.24477,-0.23451 0.29875,0.23381 c 0.16431,0.12859 0.29874,0.28494 0.29874,0.34746 0,0.20059 -0.58796,0.69136 -1.00422,0.83823 -0.60583,0.21374 -1.18836,0.18191 -1.64151,-0.0897 z m 0.91856,-2.24899 c 0.39539,-0.0946 0.7437,-0.19684 0.77401,-0.22716 0.0896,-0.0896 -0.23812,-0.52241 -0.47827,-0.63184 -0.42542,-0.19383 -0.961,0.18741 -1.11277,0.7921 -0.0718,0.28588 -0.0913,0.28428 0.81703,0.0669 z m 5.25429,1.26829 c -0.45319,-0.12927 -0.64069,-0.51364 -0.709,-1.45347 -0.1042,-1.43345 -0.11207,-1.45975 -0.42349,-1.41404 -0.27042,0.0397 -0.27163,0.0378 -0.27163,-0.43213 0,-0.44547 0.0133,-0.472 0.23745,-0.472 0.23043,0 0.23671,-0.0157 0.21247,-0.53074 l -0.025,-0.53075 0.45176,-0.11267 c 0.24846,-0.062 0.46567,-0.0987 0.48267,-0.0817 0.017,0.017 0.0566,0.24801 0.0881,0.51336 l 0.0571,0.48244 0.38973,-0.0584 c 0.35201,-0.0528 0.39522,-0.038 0.44641,0.15313 0.0312,0.11637 0.0572,0.32326 0.0579,0.45976 0.001,0.22451 -0.0393,0.25426 -0.42418,0.31198 l -0.42545,0.0638 0.0642,0.88797 c 0.0873,1.20804 0.22351,1.4078 0.79783,1.17008 0.11226,-0.0465 0.18487,0.0257 0.29116,0.28952 0.12624,0.31329 0.1265,0.36837 0.002,0.50772 -0.0766,0.086 -0.26989,0.18252 -0.42962,0.21457 -0.15973,0.032 -0.35272,0.0718 -0.42887,0.0883 -0.0761,0.0165 -0.27503,-0.009 -0.44196,-0.0566 z m 2.0118,-0.51792 c 3.6e-4,-0.0888 -0.0665,-1.3373 -0.14862,-2.77435 -0.0821,-1.43705 -0.12957,-2.63252 -0.10548,-2.65661 0.0241,-0.0241 0.25202,-0.0685 0.50652,-0.0986 l 0.46273,-0.0548 0.0154,0.90784 c 0.008,0.4993 0.0347,0.92721 0.0584,0.9509 0.0237,0.0237 0.16261,-0.0714 0.30872,-0.21143 0.51502,-0.49342 1.45999,-0.4907 1.85016,0.005 0.2825,0.35914 0.36118,0.77141 0.43051,2.25588 l 0.0629,1.34711 -0.44378,0.0608 c -0.24407,0.0334 -0.45478,0.0498 -0.46824,0.0363 -0.0135,-0.0135 -0.0498,-0.39781 -0.0807,-0.85411 -0.10379,-1.53205 -0.14991,-1.80716 -0.33379,-1.99104 -0.26014,-0.26013 -0.60845,-0.22131 -0.93386,0.1041 l -0.28111,0.28111 0.0389,1.37129 0.039,1.37128 -0.32764,0.0542 c -0.52875,0.0875 -0.65076,0.0677 -0.65004,-0.10529 z m 29.81357,0.0896 c -0.5895,-0.0662 -0.66672,-0.11036 -0.60722,-0.34746 0.069,-0.27495 0.0153,-0.28275 -0.29064,-0.0421 -0.42471,0.33408 -1.22184,0.18524 -1.68247,-0.31415 -0.33662,-0.36494 -0.35344,-1.10436 -0.0598,-2.63075 0.13088,-0.68049 0.24888,-1.24802 0.2622,-1.26117 0.0385,-0.038 0.81061,0.11572 0.86759,0.1727 0.0283,0.0283 -0.0357,0.54243 -0.14212,1.1425 -0.10646,0.60007 -0.19357,1.22601 -0.19357,1.39098 0,0.37121 0.2796,0.67019 0.62305,0.66621 0.54536,-0.006 0.763,-0.39525 1.05255,-1.88097 l 0.21206,-1.08809 0.46213,0.0613 c 0.25418,0.0337 0.472,0.0712 0.48405,0.0832 0.0217,0.0217 -0.69326,3.93892 -0.73515,4.02749 -0.012,0.0254 -0.12569,0.0346 -0.25261,0.0203 z m -24.69308,-0.79514 c -1.37457,-0.59894 -1.41137,-2.98578 -0.0594,-3.85434 0.38173,-0.24524 0.49429,-0.2727 0.99618,-0.24301 0.96735,0.0572 1.52842,0.68354 1.54776,1.72771 l 0.009,0.50844 -1.23934,0.11896 c -0.68164,0.0654 -1.25952,0.13913 -1.28418,0.16379 -0.10137,0.10137 0.18134,0.50837 0.44941,0.647 0.33717,0.17435 0.74063,0.11619 1.13677,-0.16388 l 0.2626,-0.18566 0.29122,0.29591 0.29122,0.2959 -0.34381,0.30129 c -0.55756,0.48862 -1.44343,0.6556 -2.05782,0.38789 z m 1.40489,-2.4476 c 0.19517,-0.0523 0.19757,-0.0661 0.0606,-0.34839 -0.30082,-0.62016 -1.12883,-0.55407 -1.44817,0.11559 -0.0847,0.1777 -0.15407,0.34273 -0.15407,0.36675 0,0.0523 1.25253,-0.0565 1.54163,-0.13395 z m 17.22568,2.4161 -0.4781,-0.0337 -0.42543,-0.88614 -0.42543,-0.88614 -0.2654,0.25427 c -0.21174,0.20285 -0.27842,0.36643 -0.32978,0.80896 l -0.0644,0.55469 -0.47264,-0.0627 c -0.25995,-0.0345 -0.48374,-0.0738 -0.4973,-0.0874 -0.0136,-0.0136 0.0331,-0.45738 0.10381,-0.98625 0.0707,-0.52887 0.22424,-1.78194 0.34126,-2.78459 l 0.21278,-1.82301 h 0.48939 c 0.26917,0 0.48899,0.0311 0.48849,0.0692 -5e-4,0.0381 -0.0825,0.73147 -0.18214,1.54088 -0.0997,0.8094 -0.16291,1.48996 -0.14053,1.51234 0.0224,0.0224 0.37778,-0.27642 0.78977,-0.66399 0.79409,-0.74702 0.92358,-0.79495 1.68736,-0.62453 0.25999,0.058 0.25723,0.0623 -0.54151,0.84133 l -0.80284,0.78303 0.61074,1.22546 c 0.33591,0.674 0.61075,1.24584 0.61075,1.27074 0,0.0249 -0.0519,0.0376 -0.11538,0.0282 -0.0635,-0.009 -0.33053,-0.0322 -0.59349,-0.0508 z m -13.34703,-1.8244 0.054,-1.52302 h -0.29108 c -0.28775,0 -0.29108,-0.005 -0.29108,-0.46152 0,-0.4497 0.007,-0.46152 0.27273,-0.46152 0.24329,0 0.27901,-0.0374 0.33084,-0.34615 0.14451,-0.86081 0.46976,-1.326 1.02445,-1.46522 0.23803,-0.0597 0.93338,0.004 1.02301,0.0933 0.0282,0.0282 -8.4e-4,0.23737 -0.0645,0.46483 -0.10767,0.38455 -0.13378,0.40996 -0.37234,0.36224 -0.31584,-0.0632 -0.645,0.22664 -0.645,0.5679 0,0.21196 0.0339,0.23076 0.41537,0.23076 h 0.41537 v 0.46152 0.46152 h -0.40251 -0.40251 l -0.0582,0.4846 c -0.032,0.26653 -0.0586,0.97265 -0.059,1.56917 l -8e-4,1.08457 h -0.50135 -0.50136 z m 7.75996,1.43716 c -0.43541,-0.14062 -0.7891,-0.45575 -0.99964,-0.89067 -0.17206,-0.35543 -0.19742,-0.53239 -0.16196,-1.13009 0.0603,-1.01664 0.39264,-1.59698 1.1314,-1.97572 0.4404,-0.22577 1.1976,-0.24292 1.59738,-0.0362 0.30272,0.15655 0.7601,0.65415 0.75897,0.82573 -3.9e-4,0.0596 -0.16845,0.2041 -0.37347,0.32119 l -0.37276,0.21289 -0.26354,-0.28212 c -0.34262,-0.36677 -0.72731,-0.37652 -1.11603,-0.0283 -0.65409,0.58597 -0.49524,1.97991 0.23428,2.05582 0.3755,0.0391 0.52166,-0.008 0.75552,-0.24151 0.25179,-0.25179 0.34253,-0.24046 0.79954,0.0998 0.16175,0.12044 0.16249,0.1405 0.0143,0.39135 -0.3416,0.57828 -1.30409,0.90381 -2.004,0.67778 z m -4.90483,-0.28329 c -0.46068,-0.40448 -0.52875,-0.79414 -0.4273,-2.44613 0.0468,-0.76151 0.0862,-1.39495 0.0875,-1.40764 0.001,-0.0127 0.21666,-0.0231 0.47839,-0.0231 h 0.47588 l -0.0591,1.29954 c -0.0695,1.52721 0.0153,1.8388 0.50036,1.8388 0.71511,0 0.89452,-0.35585 0.97431,-1.93252 l 0.061,-1.20582 h 0.50665 0.50665 l -0.0572,0.89997 c -0.0315,0.49498 -0.0848,1.40879 -0.11858,2.03069 l -0.0614,1.13073 H 155.593 c -0.45992,0 -0.50102,-0.0166 -0.45708,-0.18461 0.0628,-0.2403 0.0111,-0.23285 -0.3205,0.0462 -0.21827,0.18366 -0.37575,0.23076 -0.77162,0.23076 -0.42099,0 -0.5458,-0.0425 -0.81268,-0.27684 z"
       id="path1" /></g></svg>
